<svg width="84" height="156" viewBox="0 0 84 156" fill="none" xmlns="http://www.w3.org/2000/svg">
<g filter="url(#filter0_d_21_10)">
<rect x="4" width="76" height="148" rx="17" fill="#D9D9D9"/>
<rect x="4.75" y="0.75" width="74.5" height="146.5" rx="16.25" stroke="black" stroke-width="1.5"/>
</g>
<g filter="url(#filter1_d_21_10)">
<path d="M16.2445 27.165C16.0545 26.935 15.8595 26.82 15.6595 26.82C15.5029 26.82 15.3712 26.8733 15.2645 26.98C15.1579 27.0867 15.1045 27.2133 15.1045 27.36C15.1045 27.5067 15.1462 27.6283 15.2295 27.725C15.3162 27.8217 15.4229 27.9017 15.5495 27.965C15.6762 28.0283 15.8129 28.1033 15.9595 28.19C16.1062 28.2733 16.2429 28.3617 16.3695 28.455C16.4962 28.545 16.6012 28.67 16.6845 28.83C16.7712 28.9867 16.8145 29.18 16.8145 29.41C16.8145 29.64 16.7695 29.8683 16.6795 30.095C16.5895 30.3217 16.4712 30.5167 16.3245 30.68C16.1779 30.8433 16.0095 30.9833 15.8195 31.1C15.4395 31.3333 15.0445 31.45 14.6345 31.45C14.3579 31.45 14.1179 31.3817 13.9145 31.245C13.7079 31.1083 13.6045 30.9533 13.6045 30.78C13.6045 30.6067 13.6862 30.52 13.8495 30.52C13.9129 30.52 14.0412 30.6083 14.2345 30.785C14.3079 30.8517 14.4079 30.9117 14.5345 30.965C14.6645 31.0217 14.8079 31.05 14.9645 31.05C15.1245 31.05 15.2912 31.02 15.4645 30.96C15.6379 30.9 15.7995 30.8133 15.9495 30.7C16.1029 30.59 16.2262 30.4417 16.3195 30.255C16.4129 30.0717 16.4595 29.8667 16.4595 29.64C16.4595 29.41 16.3995 29.215 16.2795 29.055C16.1595 28.895 16.0145 28.77 15.8445 28.68C15.6745 28.59 15.5045 28.5033 15.3345 28.42C15.1645 28.3333 15.0195 28.2233 14.8995 28.09C14.7795 27.9567 14.7195 27.795 14.7195 27.605C14.7195 27.4117 14.7612 27.24 14.8445 27.09C14.9312 26.94 15.0395 26.8267 15.1695 26.75C15.4162 26.5967 15.6612 26.52 15.9045 26.52C16.1479 26.52 16.3462 26.5767 16.4995 26.69C16.6529 26.8033 16.7295 26.9333 16.7295 27.08C16.7295 27.1667 16.7079 27.2333 16.6645 27.28C16.6212 27.3233 16.5712 27.345 16.5145 27.345C16.4579 27.345 16.4095 27.33 16.3695 27.3C16.3329 27.2667 16.2912 27.2217 16.2445 27.165ZM18.6268 29.145L18.5768 28.02C18.5768 27.93 18.5985 27.8583 18.6418 27.805C18.6885 27.7483 18.7435 27.72 18.8068 27.72C18.8702 27.72 18.9218 27.7467 18.9618 27.8C19.0018 27.85 19.0218 27.92 19.0218 28.01C19.0218 28.0967 19.0118 28.22 18.9918 28.38C18.9518 28.7 18.9318 28.9867 18.9318 29.24C18.9318 29.34 18.9635 29.4367 19.0268 29.53C19.0935 29.62 19.1268 29.7017 19.1268 29.775C19.1268 29.8483 19.1018 29.91 19.0518 29.96C19.0018 30.0067 18.9452 30.03 18.8818 30.03C18.7152 30.03 18.6318 29.8983 18.6318 29.635C18.4752 29.8983 18.2785 30.03 18.0418 30.03C17.8518 30.03 17.7002 29.9617 17.5868 29.825C17.4768 29.6883 17.4002 29.5217 17.3568 29.325L17.1668 28.465C17.1468 28.3683 17.1018 28.2833 17.0318 28.21C16.9652 28.1333 16.9318 28.0567 16.9318 27.98C16.9318 27.9033 16.9585 27.8417 17.0118 27.795C17.0652 27.745 17.1285 27.72 17.2018 27.72C17.3685 27.72 17.4768 27.8517 17.5268 28.115L17.7168 29.16C17.7802 29.4933 17.9385 29.66 18.1918 29.66C18.3152 29.66 18.4168 29.6117 18.4968 29.515C18.5768 29.415 18.6202 29.2917 18.6268 29.145ZM19.692 29.2C19.692 29.2 19.7053 28.895 19.732 28.285C19.732 27.7417 19.7186 27.3167 19.692 27.01C19.6653 26.7033 19.652 26.545 19.652 26.535C19.652 26.345 19.7253 26.25 19.872 26.25C20.0486 26.25 20.137 26.3867 20.137 26.66C20.137 26.8233 20.1186 27.1017 20.082 27.495C20.0486 27.8883 20.0303 28.15 20.027 28.28C20.167 28.1067 20.3336 27.97 20.527 27.87C20.7236 27.77 20.9203 27.72 21.117 27.72C21.317 27.72 21.4903 27.8017 21.637 27.965C21.787 28.125 21.862 28.32 21.862 28.55C21.862 28.92 21.7203 29.26 21.437 29.57C21.1536 29.8767 20.832 30.03 20.472 30.03C20.2486 30.03 20.062 29.95 19.912 29.79C19.7653 29.6267 19.692 29.43 19.692 29.2ZM20.237 28.335C20.0903 28.4817 20.017 28.6617 20.017 28.875C20.017 29.0883 20.0903 29.27 20.237 29.42C20.387 29.5667 20.567 29.64 20.777 29.64C20.9903 29.64 21.1686 29.5667 21.312 29.42C21.4553 29.27 21.527 29.0883 21.527 28.875C21.527 28.6617 21.4553 28.4817 21.312 28.335C21.1686 28.1883 20.9903 28.115 20.777 28.115C20.567 28.115 20.387 28.1883 20.237 28.335ZM24.2343 29.285C24.2543 29.3817 24.2976 29.4683 24.3643 29.545C24.4343 29.6183 24.4693 29.6933 24.4693 29.77C24.4693 29.8467 24.4426 29.91 24.3893 29.96C24.3359 30.0067 24.2776 30.03 24.2143 30.03C24.1509 30.03 24.0993 30.0183 24.0593 29.995C24.0193 29.9717 23.9859 29.9367 23.9593 29.89C23.9226 29.82 23.8943 29.735 23.8743 29.635L23.6543 28.59C23.6209 28.4367 23.5676 28.315 23.4943 28.225C23.4243 28.135 23.3143 28.09 23.1643 28.09C23.0176 28.09 22.9026 28.1417 22.8193 28.245C22.7393 28.345 22.6976 28.455 22.6943 28.575C22.7209 29.365 22.7343 29.7833 22.7343 29.83C22.7343 29.8733 22.7143 29.9183 22.6743 29.965C22.6343 30.0083 22.5826 30.03 22.5193 30.03C22.4559 30.03 22.4009 30.0083 22.3543 29.965C22.3109 29.9183 22.2893 29.8433 22.2893 29.74C22.2893 29.6367 22.2976 29.3917 22.3143 29.005C22.3309 28.615 22.3393 28.3133 22.3393 28.1C22.3393 27.8867 22.3309 27.6 22.3143 27.24C22.2976 26.88 22.2893 26.6483 22.2893 26.545C22.2893 26.4417 22.3109 26.3667 22.3543 26.32C22.4009 26.2733 22.4559 26.25 22.5193 26.25C22.5826 26.25 22.6343 26.2733 22.6743 26.32C22.7143 26.3633 22.7343 26.4367 22.7343 26.54C22.7343 26.64 22.7259 26.8767 22.7093 27.25C22.6959 27.62 22.6893 27.9233 22.6893 28.16C22.8859 27.8667 23.1126 27.72 23.3693 27.72C23.7193 27.72 23.9443 27.955 24.0443 28.425L24.2343 29.285ZM26.5555 29.33C26.5788 29.39 26.6272 29.4717 26.7005 29.575C26.7772 29.675 26.8155 29.7567 26.8155 29.82C26.8155 29.8833 26.7988 29.935 26.7655 29.975C26.7322 30.0117 26.6872 30.03 26.6305 30.03C26.4938 30.03 26.3722 29.8883 26.2655 29.605L26.2255 29.495C26.0555 29.8517 25.8005 30.03 25.4605 30.03C25.2905 30.03 25.1488 29.9767 25.0355 29.87C24.9255 29.76 24.8705 29.6233 24.8705 29.46C24.8705 29.2067 24.9572 28.9883 25.1305 28.805C25.3038 28.6217 25.5305 28.5233 25.8105 28.51C25.7438 28.3933 25.6688 28.3067 25.5855 28.25C25.5055 28.19 25.4322 28.155 25.3655 28.145C25.2988 28.135 25.2355 28.13 25.1755 28.13C25.1188 28.1267 25.0738 28.1133 25.0405 28.09C25.0072 28.0667 24.9905 28.0217 24.9905 27.955C24.9905 27.885 25.0172 27.8283 25.0705 27.785C25.1272 27.7417 25.1938 27.72 25.2705 27.72C25.4872 27.72 25.7005 27.8283 25.9105 28.045C26.1205 28.2617 26.3038 28.6017 26.4605 29.065L26.5555 29.33ZM25.6855 28.775C25.5655 28.775 25.4572 28.815 25.3605 28.895C25.2672 28.975 25.2205 29.0783 25.2205 29.205C25.2205 29.3317 25.2622 29.4383 25.3455 29.525C25.4322 29.6083 25.5355 29.65 25.6555 29.65C25.7755 29.65 25.8788 29.6083 25.9655 29.525C26.0522 29.4383 26.0955 29.3367 26.0955 29.22C26.0955 29.1367 26.0805 29.06 26.0505 28.99C26.0205 28.9167 26.0022 28.8717 25.9955 28.855C25.9088 28.8017 25.8055 28.775 25.6855 28.775ZM27.6154 30.03C27.4921 30.03 27.3921 30.005 27.3154 29.955C27.2388 29.905 27.2004 29.8433 27.2004 29.77C27.2004 29.6933 27.2221 29.6333 27.2654 29.59C27.3121 29.5433 27.3571 29.52 27.4004 29.52C27.4471 29.52 27.5221 29.54 27.6254 29.58C27.7288 29.62 27.8354 29.64 27.9454 29.64C28.0588 29.64 28.1721 29.6117 28.2854 29.555C28.3988 29.495 28.4554 29.4233 28.4554 29.34C28.4554 29.2533 28.4121 29.1867 28.3254 29.14C28.2421 29.0933 28.1404 29.0567 28.0204 29.03C27.9004 29 27.7804 28.9667 27.6604 28.93C27.5404 28.8933 27.4371 28.8383 27.3504 28.765C27.2671 28.6883 27.2254 28.595 27.2254 28.485C27.2254 28.305 27.3404 28.1333 27.5704 27.97C27.8004 27.8033 28.0538 27.72 28.3304 27.72C28.4638 27.72 28.5654 27.745 28.6354 27.795C28.7088 27.8417 28.7454 27.9033 28.7454 27.98C28.7454 28.0567 28.7221 28.1183 28.6754 28.165C28.6321 28.2083 28.5871 28.23 28.5404 28.23C28.4971 28.23 28.4238 28.21 28.3204 28.17C28.2171 28.13 28.1088 28.11 27.9954 28.11C27.8854 28.11 27.7888 28.1333 27.7054 28.18C27.6254 28.2267 27.5854 28.2833 27.5854 28.35C27.5854 28.4167 27.6488 28.475 27.7754 28.525C27.9054 28.575 28.0471 28.615 28.2004 28.645C28.3538 28.675 28.4938 28.735 28.6204 28.825C28.7504 28.9117 28.8154 29.025 28.8154 29.165C28.8154 29.3817 28.6888 29.58 28.4354 29.76C28.1821 29.94 27.9088 30.03 27.6154 30.03ZM31.3192 29.285C31.3392 29.3817 31.3826 29.4683 31.4492 29.545C31.5192 29.6183 31.5542 29.6933 31.5542 29.77C31.5542 29.8467 31.5276 29.91 31.4742 29.96C31.4209 30.0067 31.3626 30.03 31.2992 30.03C31.2359 30.03 31.1842 30.0183 31.1442 29.995C31.1042 29.9717 31.0709 29.9367 31.0442 29.89C31.0076 29.82 30.9792 29.735 30.9592 29.635L30.7392 28.59C30.7059 28.4367 30.6526 28.315 30.5792 28.225C30.5092 28.135 30.3992 28.09 30.2492 28.09C30.1026 28.09 29.9876 28.1417 29.9042 28.245C29.8242 28.345 29.7826 28.455 29.7792 28.575C29.8059 29.365 29.8192 29.7833 29.8192 29.83C29.8192 29.8733 29.7992 29.9183 29.7592 29.965C29.7192 30.0083 29.6676 30.03 29.6042 30.03C29.5409 30.03 29.4859 30.0083 29.4392 29.965C29.3959 29.9183 29.3742 29.8433 29.3742 29.74C29.3742 29.6367 29.3826 29.3917 29.3992 29.005C29.4159 28.615 29.4242 28.3133 29.4242 28.1C29.4242 27.8867 29.4159 27.6 29.3992 27.24C29.3826 26.88 29.3742 26.6483 29.3742 26.545C29.3742 26.4417 29.3959 26.3667 29.4392 26.32C29.4859 26.2733 29.5409 26.25 29.6042 26.25C29.6676 26.25 29.7192 26.2733 29.7592 26.32C29.7992 26.3633 29.8192 26.4367 29.8192 26.54C29.8192 26.64 29.8109 26.8767 29.7942 27.25C29.7809 27.62 29.7742 27.9233 29.7742 28.16C29.9709 27.8667 30.1976 27.72 30.4542 27.72C30.8042 27.72 31.0292 27.955 31.1292 28.425L31.3192 29.285Z" fill="black"/>
</g>
<rect width="20.9931" height="2.63962" rx="1.31981" transform="matrix(0.999953 -0.00972476 -0.00972476 -0.999953 31.0257 47.8436)" fill="#C8C4C4"/>
<rect width="39.2639" height="2.63962" rx="1.31981" transform="matrix(0.999953 -0.00972476 -0.00972476 -0.999953 22.0257 52.8436)" fill="#C8C4C4"/>
<rect width="52.8509" height="2.63962" rx="1.31981" transform="matrix(0.999953 -0.00972476 -0.00972476 -0.999953 14.0257 59.0213)" fill="#C8C4C4"/>
<rect x="29.1" y="4.1" width="27.8" height="4.8" rx="2.4" fill="black" stroke="black" stroke-width="0.2"/>
<circle cx="53.5" cy="6.5" r="1.45" fill="#272626" stroke="black" stroke-width="0.1"/>
<circle cx="53.5" cy="6.5" r="0.45" fill="#0B0B0B" stroke="black" stroke-width="0.1"/>
<rect x="79.5" y="35.5" width="1" height="19" rx="0.5" fill="#D9D9D9" stroke="black"/>
<rect x="79.5" y="59.5" width="1" height="10" rx="0.5" fill="#D9D9D9" stroke="black"/>
<rect x="61" y="23" width="8" height="1.6" fill="#C8C4C4"/>
<rect x="61" y="26.2" width="8" height="1.6" fill="#C8C4C4"/>
<rect x="61" y="29.4" width="8" height="1.6" fill="#C8C4C4"/>
<path d="M21.5 84L23.1839 89.5279H28.6329L24.2245 92.9443L25.9084 98.4721L21.5 95.0557L17.0916 98.4721L18.7755 92.9443L14.3671 89.5279H19.8161L21.5 84Z" fill="#C8C4C4"/>
<path d="M21.5 84L23.1839 89.5279H28.6329L24.2245 92.9443L25.9084 98.4721L21.5 95.0557L17.0916 98.4721L18.7755 92.9443L14.3671 89.5279H19.8161L21.5 84Z" stroke="black"/>
<path d="M67 103C67 118.464 61.8513 131 55.5 131C49.1487 131 44 118.464 44 103C44 87.536 49.1487 75 55.5 75C61.8513 75 67 87.536 67 103Z" fill="#CBC2CE"/>
<path d="M67 103C67 118.464 61.8513 131 55.5 131C49.1487 131 44 118.464 44 103C44 87.536 49.1487 75 55.5 75C61.8513 75 67 87.536 67 103Z" stroke="black"/>
<defs>
<filter id="filter0_d_21_10" x="0" y="0" width="84" height="156" filterUnits="userSpaceOnUse" color-interpolation-filters="sRGB">
<feFlood flood-opacity="0" result="BackgroundImageFix"/>
<feColorMatrix in="SourceAlpha" type="matrix" values="0 0 0 0 0 0 0 0 0 0 0 0 0 0 0 0 0 0 127 0" result="hardAlpha"/>
<feOffset dy="4"/>
<feGaussianBlur stdDeviation="2"/>
<feComposite in2="hardAlpha" operator="out"/>
<feColorMatrix type="matrix" values="0 0 0 0 0 0 0 0 0 0 0 0 0 0 0 0 0 0 0.25 0"/>
<feBlend mode="normal" in2="BackgroundImageFix" result="effect1_dropShadow_21_10"/>
<feBlend mode="normal" in="SourceGraphic" in2="effect1_dropShadow_21_10" result="shape"/>
</filter>
<filter id="filter1_d_21_10" x="0.504522" y="22.15" width="34.1497" height="21.4" filterUnits="userSpaceOnUse" color-interpolation-filters="sRGB">
<feFlood flood-opacity="0" result="BackgroundImageFix"/>
<feColorMatrix in="SourceAlpha" type="matrix" values="0 0 0 0 0 0 0 0 0 0 0 0 0 0 0 0 0 0 127 0" result="hardAlpha"/>
<feOffset dx="-5" dy="4"/>
<feGaussianBlur stdDeviation="4.05"/>
<feComposite in2="hardAlpha" operator="out"/>
<feColorMatrix type="matrix" values="0 0 0 0 0 0 0 0 0 0 0 0 0 0 0 0 0 0 0.55 0"/>
<feBlend mode="normal" in2="BackgroundImageFix" result="effect1_dropShadow_21_10"/>
<feBlend mode="normal" in="SourceGraphic" in2="effect1_dropShadow_21_10" result="shape"/>
</filter>
</defs>
</svg>
