<svg width="192" height="120" viewBox="0 0 192 120" fill="none" xmlns="http://www.w3.org/2000/svg">
<g filter="url(#filter0_d_4_40)">
<rect x="4" width="184" height="112" rx="19" fill="#D8D8D8"/>
<rect x="4.5" y="0.5" width="183" height="111" rx="18.5" stroke="black"/>
</g>
<path d="M27.8 17.5C27.8 19.8555 25.6713 21.8 23 21.8C20.3287 21.8 18.2 19.8555 18.2 17.5C18.2 15.1445 20.3287 13.2 23 13.2C25.6713 13.2 27.8 15.1445 27.8 17.5Z" fill="#36CF00" stroke="black" stroke-width="0.4"/>
<path d="M40.8 17.5C40.8 19.8555 38.6713 21.8 36 21.8C33.3287 21.8 31.2 19.8555 31.2 17.5C31.2 15.1445 33.3287 13.2 36 13.2C38.6713 13.2 40.8 15.1445 40.8 17.5Z" fill="#BEFF04" stroke="black" stroke-width="0.4"/>
<path d="M52.8 17.5C52.8 19.8555 50.6713 21.8 48 21.8C45.3287 21.8 43.2 19.8555 43.2 17.5C43.2 15.1445 45.3287 13.2 48 13.2C50.6713 13.2 52.8 15.1445 52.8 17.5Z" fill="#2C00DE" stroke="black" stroke-width="0.4"/>
<rect x="23" y="31" width="34" height="6" rx="3" fill="#C8C4C4"/>
<rect x="23" y="39" width="49" height="5" rx="2.5" fill="#C8C4C4"/>
<rect x="23" y="46" width="66" height="5" rx="2.5" fill="#C8C4C4"/>
<rect width="66" height="5" rx="2.5" transform="matrix(0.00501962 -0.999987 -0.999987 -0.00501962 143 97.0243)" fill="#C8C4C4"/>
<rect width="52.5052" height="5" rx="2.5" transform="matrix(0.00501962 -0.999987 -0.999987 -0.00501962 151 97.0243)" fill="#C8C4C4"/>
<rect width="39.7654" height="5" rx="2.5" transform="matrix(0.00501962 -0.999987 -0.999987 -0.00501962 159 97.0243)" fill="#C8C4C4"/>
<rect width="27.8524" height="5" rx="2.5" transform="matrix(0.00501962 -0.999987 -0.999987 -0.00501962 167 97.0243)" fill="#C8C4C4"/>
<circle cx="58.5" cy="67.5" r="2.45" fill="#D9D9D9" stroke="black" stroke-width="0.1"/>
<path d="M34.4286 84.2L43 70.0963L51.5714 84.2H34.4286Z" fill="#C8C4C4" stroke="black" stroke-width="0.1"/>
<mask id="mask0_4_40" style="mask-type:alpha" maskUnits="userSpaceOnUse" x="23" y="56" width="49" height="41">
<path d="M23 61C23 58.2386 25.2386 56 28 56H67C69.7614 56 72 58.2386 72 61V92C72 94.7614 69.7614 97 67 97H28C25.2386 97 23 94.7614 23 92V61Z" fill="#C8C4C4"/>
</mask>
<g mask="url(#mask0_4_40)">
</g>
<mask id="mask1_4_40" style="mask-type:alpha" maskUnits="userSpaceOnUse" x="23" y="56" width="49" height="41">
<path fill-rule="evenodd" clip-rule="evenodd" d="M67 57H28C25.7909 57 24 58.7909 24 61V92C24 94.2091 25.7909 96 28 96H67C69.2091 96 71 94.2091 71 92V61C71 58.7909 69.2091 57 67 57ZM28 56C25.2386 56 23 58.2386 23 61V92C23 94.7614 25.2386 97 28 97H67C69.7614 97 72 94.7614 72 92V61C72 58.2386 69.7614 56 67 56H28Z" fill="black" fill-opacity="0.4"/>
</mask>
<g mask="url(#mask1_4_40)">
</g>
<defs>
<filter id="filter0_d_4_40" x="0" y="0" width="192" height="120" filterUnits="userSpaceOnUse" color-interpolation-filters="sRGB">
<feFlood flood-opacity="0" result="BackgroundImageFix"/>
<feColorMatrix in="SourceAlpha" type="matrix" values="0 0 0 0 0 0 0 0 0 0 0 0 0 0 0 0 0 0 127 0" result="hardAlpha"/>
<feOffset dy="4"/>
<feGaussianBlur stdDeviation="2"/>
<feComposite in2="hardAlpha" operator="out"/>
<feColorMatrix type="matrix" values="0 0 0 0 0 0 0 0 0 0 0 0 0 0 0 0 0 0 0.25 0"/>
<feBlend mode="normal" in2="BackgroundImageFix" result="effect1_dropShadow_4_40"/>
<feBlend mode="normal" in="SourceGraphic" in2="effect1_dropShadow_4_40" result="shape"/>
</filter>
</defs>
</svg>
