<svg width="631" height="104" viewBox="0 0 631 104" fill="none" xmlns="http://www.w3.org/2000/svg">
<path d="M0.330122 90.1114C0.169175 87.1702 2.42295 84.6555 5.36407 84.4946C8.30519 84.3336 10.8199 86.5874 10.9809 89.5285C11.1418 92.4696 8.88803 94.9844 5.94691 95.1453C3.00579 95.3063 0.491069 93.0525 0.330122 90.1114ZM620.319 6.06094C620.158 3.11982 622.411 0.605099 625.352 0.444152C628.294 0.283206 630.808 2.53698 630.969 5.4781C631.13 8.41922 628.876 10.9339 625.935 11.0949C622.994 11.2558 620.479 9.00206 620.319 6.06094ZM5.06782 89.0108C117.941 7.02914 246.417 48.3011 359.634 78.6941C416.352 93.9199 469.189 106.413 514.582 99.6882C537.246 96.3308 558.037 88.1828 576.522 73.187C595.013 58.1866 611.247 36.2929 624.727 5.36991L626.561 6.16912C612.984 37.3133 596.577 59.4935 577.782 74.7402C558.982 89.9916 537.844 98.264 514.876 101.667C469.004 108.462 415.763 95.8328 359.115 80.6258C245.602 50.1532 118.196 9.31618 6.24315 90.6291L5.06782 89.0108Z" fill="black"/>
</svg>
