<svg width="65" height="64" viewBox="0 0 65 64" fill="none" xmlns="http://www.w3.org/2000/svg">
<g filter="url(#filter0_d_13_2)">
<path d="M61 28C61 43.464 48.2401 56 32.5 56C16.7599 56 4.00002 43.464 4.00002 28C4.00002 12.536 16.7599 0 32.5 0C48.2401 0 61 12.536 61 28Z" fill="#8000CF"/>
<path d="M43 27.5C43 32.7467 38.5229 37 33 37C27.4772 37 23 32.7467 23 27.5C23 22.2533 27.4772 18 33 18C38.5229 18 43 22.2533 43 27.5Z" fill="#BEFF04"/>
<path d="M52 28C52 38.4934 43.2696 47 32.5 47C21.7305 47 13 38.4934 13 28C13 17.5066 21.7305 9 32.5 9C43.2696 9 52 17.5066 52 28ZM24.6312 28C24.6312 32.2344 28.1542 35.667 32.5 35.667C36.8458 35.667 40.3688 32.2344 40.3688 28C40.3688 23.7656 36.8458 20.333 32.5 20.333C28.1542 20.333 24.6312 23.7656 24.6312 28Z" fill="#9533C4"/>
</g>
<defs>
<filter id="filter0_d_13_2" x="1.52588e-05" y="0" width="65" height="64" filterUnits="userSpaceOnUse" color-interpolation-filters="sRGB">
<feFlood flood-opacity="0" result="BackgroundImageFix"/>
<feColorMatrix in="SourceAlpha" type="matrix" values="0 0 0 0 0 0 0 0 0 0 0 0 0 0 0 0 0 0 127 0" result="hardAlpha"/>
<feOffset dy="4"/>
<feGaussianBlur stdDeviation="2"/>
<feComposite in2="hardAlpha" operator="out"/>
<feColorMatrix type="matrix" values="0 0 0 0 0 0 0 0 0 0 0 0 0 0 0 0 0 0 0.25 0"/>
<feBlend mode="normal" in2="BackgroundImageFix" result="effect1_dropShadow_13_2"/>
<feBlend mode="normal" in="SourceGraphic" in2="effect1_dropShadow_13_2" result="shape"/>
</filter>
</defs>
</svg>
