<svg width="57" height="56" viewBox="0 0 57 56" fill="none" xmlns="http://www.w3.org/2000/svg">
<path d="M57 28C57 43.464 44.2401 56 28.5 56C12.7599 56 0 43.464 0 28C0 12.536 12.7599 0 28.5 0C44.2401 0 57 12.536 57 28Z" fill="#8000CF"/>
<path d="M39 27.5C39 32.7467 34.5228 37 29 37C23.4772 37 19 32.7467 19 27.5C19 22.2533 23.4772 18 29 18C34.5228 18 39 22.2533 39 27.5Z" fill="#BEFF04"/>
<path d="M48 28C48 38.4934 39.2696 47 28.5 47C17.7304 47 9 38.4934 9 28C9 17.5066 17.7304 9 28.5 9C39.2696 9 48 17.5066 48 28ZM20.6312 28C20.6312 32.2344 24.1542 35.667 28.5 35.667C32.8458 35.667 36.3688 32.2344 36.3688 28C36.3688 23.7656 32.8458 20.333 28.5 20.333C24.1542 20.333 20.6312 23.7656 20.6312 28Z" fill="#9533C4"/>
</svg>
